<svg xmlns="http://www.w3.org/2000/svg" viewBox="0 0 128 128" fill="none">
  <defs>
    <linearGradient id="brand-bg" x1="20" y1="16" x2="108" y2="112" gradientUnits="userSpaceOnUse">
      <stop offset="0" stop-color="#FAF7F2"/>
      <stop offset="1" stop-color="#EEE8DE"/>
    </linearGradient>
    <linearGradient id="brand-shadow" x1="64" y1="10" x2="64" y2="118" gradientUnits="userSpaceOnUse">
      <stop offset="0" stop-color="#FFFFFF" stop-opacity="0.9"/>
      <stop offset="1" stop-color="#D7D0C4" stop-opacity="0.25"/>
    </linearGradient>
  </defs>
  <rect x="8" y="8" width="112" height="112" rx="30" fill="url(#brand-bg)"/>
  <rect x="8.75" y="8.75" width="110.5" height="110.5" rx="29.25" stroke="url(#brand-shadow)" stroke-width="1.5"/>
  <path d="M18 66h13l8-12 9 24 9-37 10 45" stroke="#101114" stroke-width="8" stroke-linecap="round" stroke-linejoin="round"/>
  <rect x="55" y="34" width="19" height="33" rx="9.5" fill="#101114"/>
  <path d="M49 56.5c0 8.562 6.938 15.5 15.5 15.5s15.5-6.938 15.5-15.5" stroke="#101114" stroke-width="6" stroke-linecap="round"/>
  <path d="M64.5 72v14" stroke="#101114" stroke-width="6" stroke-linecap="round"/>
  <path d="M55 86h19" stroke="#101114" stroke-width="6" stroke-linecap="round"/>
  <path d="M78 44c5.4-4.5 10.7-4.5 16.1 0 5.4 4.5 10.7 4.5 16.1 0" stroke="#2DD4FF" stroke-width="6" stroke-linecap="round" stroke-linejoin="round"/>
  <path d="M78 58c5.4-4.5 10.7-4.5 16.1 0 5.4 4.5 10.7 4.5 16.1 0" stroke="#67E8A5" stroke-width="6" stroke-linecap="round" stroke-linejoin="round"/>
  <path d="M78 72c5.4-4.5 10.7-4.5 16.1 0 5.4 4.5 10.7 4.5 16.1 0" stroke="#FF9F4D" stroke-width="6" stroke-linecap="round" stroke-linejoin="round"/>
</svg>
