<svg xmlns="http://www.w3.org/2000/svg" viewBox="0 0 64 64" fill="none">
  <g stroke="#000000" stroke-width="3.4" stroke-linecap="round" stroke-linejoin="round">
    <path d="M4.5 33h7l4.5-6.5 5.5 15 5.25-24 5.75 31" />
    <rect x="26.25" y="17.5" width="9.5" height="18" rx="4.75" />
    <path d="M23.5 29.5a7.5 7.5 0 0 0 15 0" />
    <path d="M31 37v8" />
    <path d="M26.5 45h9" />
    <path d="M39.75 23.5c2.5-2.15 4.9-2.15 7.4 0 2.5 2.15 4.9 2.15 7.35 0" />
    <path d="M39.75 31c2.5-2.15 4.9-2.15 7.4 0 2.5 2.15 4.9 2.15 7.35 0" />
    <path d="M39.75 38.5c2.5-2.15 4.9-2.15 7.4 0 2.5 2.15 4.9 2.15 7.35 0" />
  </g>
</svg>
